<svg width="519" height="326" viewBox="0 0 519 326" fill="none" xmlns="http://www.w3.org/2000/svg">
<path d="M439.739 223.276L447.621 220.926C459.082 219.226 469.17 224.107 472.062 234.665L484.685 288.031L484.789 288.472H467.609H437.61L426.506 250.971C423.577 240.378 429.326 226.241 439.739 223.276Z" fill="#FEF97A"/>
<path d="M470.218 254.623L450.224 250.176C449.573 250.031 449.176 249.38 449.32 248.73L449.935 246.018C450.079 245.367 450.73 244.969 451.381 245.114L471.375 249.561C472.026 249.706 472.424 250.357 472.279 251.007L471.665 253.719C471.52 254.334 470.869 254.768 470.218 254.623Z" fill="#FEF97A"/>
<path d="M433.556 227.048C433.556 227.048 432.869 229.796 436.521 229.037C440.173 228.278 441.221 227.916 441.221 227.916L440.281 225.421L433.556 227.048Z" fill="#C9A285"/>
<path d="M474.774 283.452C477.594 278.028 480.571 264.846 483.704 243.906L464.074 245.24C461.975 253.118 460.926 257.058 460.926 257.058L453.55 222.023C451.743 218.769 448.055 220.649 444.15 224.12C443.933 224.337 439.341 221.95 439.269 222.023C441.944 237.425 440.787 253.731 443.463 269.134C445.09 277.791 448.063 284.537 452.382 289.372C453.761 290.917 455.566 292.018 457.57 292.537C464.901 294.438 470.636 291.41 474.774 283.452Z" fill="#FFCDA8"/>
<path d="M461.071 257.094L464.65 269.17" stroke="#C9A285" stroke-width="1.08468" stroke-linecap="round" stroke-linejoin="round"/>
<path d="M452.791 226.217C452.647 226.289 452.43 226.361 452.249 226.325L442.812 226.578L436.196 226.723C433.954 227.627 429.254 229.145 428.747 225.927C428.747 225.927 434.966 223.36 439.341 221.48L439.667 221.191C439.956 220.938 440.209 220.793 440.57 220.685C440.643 220.649 440.715 220.649 440.787 220.649L442.523 220.395L446.283 219.853L448.742 219.492L450.549 219.239C452.213 218.985 453.695 220.323 453.659 221.986L453.623 224.192C453.876 224.987 453.514 225.927 452.791 226.217Z" fill="#FFCDA8"/>
<path d="M485.033 238.306C484.642 246.569 483.075 249.481 475.146 249.011C471.061 248.776 463.431 250.922 460.938 247.933C459.796 246.556 452.578 221.239 460.508 221.709C468.498 222.146 485.423 230.01 485.033 238.306Z" fill="#FEF97A"/>
<path d="M443.79 225.272C443.79 225.272 444.944 227.859 441.215 227.745C437.487 227.632 436.392 227.458 436.392 227.458L436.884 224.837L443.79 225.272Z" fill="#C9A285"/>
<path d="M417.595 286.737C413.559 283.863 414.32 271.41 419.877 249.379C421.041 243.721 422.431 243.319 424.045 248.174C426.468 255.457 423.391 257.571 423.391 257.571L426.254 222.22C427.469 218.701 429.745 219.48 434.193 222.22C434.444 222.396 438.552 219.249 438.636 219.307C438.675 234.94 442.646 250.798 442.686 266.431C442.611 273.142 442.277 278.622 441.687 282.872C441.14 286.805 438.18 289.971 434.292 290.78C428.607 291.964 423.042 290.616 417.595 286.737Z" fill="#FFCDA8"/>
<path d="M423.255 257.632L421.827 270.146" stroke="#482D1F" stroke-width="1.08468" stroke-linecap="round" stroke-linejoin="round"/>
<path d="M426.683 227.823C426.838 227.869 427.065 227.903 427.236 227.836L436.574 226.446L443.115 225.44C445.479 225.941 450.372 226.62 450.312 223.363C450.312 223.363 443.742 221.915 439.107 220.823L438.736 220.595C438.407 220.396 438.133 220.297 437.758 220.253C437.68 220.23 437.609 220.243 437.538 220.255L435.785 220.307L431.988 220.426L429.504 220.497L427.679 220.562C425.998 220.601 424.77 222.176 425.094 223.808L425.513 225.973C425.402 226.801 425.921 227.664 426.683 227.823Z" fill="#FFCDA8"/>
<path d="M437.248 222.088C433.52 221.974 431.801 220.164 432.124 220.339L442.547 220.339C441.5 221.581 439.734 222.164 437.248 222.088Z" fill="#C9A285"/>
<path d="M424.015 250.253C421.827 250.253 417.997 249.436 416.674 248.247C415.278 246.997 416.742 228.988 425.888 226.715L424.015 250.253Z" fill="#FEF97A"/>
<path d="M462.529 203.155C466.677 207.373 470.631 213.71 468.951 216.629C467.749 218.74 465.212 219.408 462.57 220.047C460.086 220.654 455.232 221.45 448.897 219.528C447.093 218.857 445.228 218.133 443.433 217.427" fill="#482D1F"/>
<path d="M429.494 201.976C425.881 204.003 421.93 207.436 422.47 209.752C422.854 211.389 424.434 212.337 426.05 213.294C427.569 214.187 430.675 215.731 435.314 215.739C436.683 215.656 438.027 215.53 439.406 215.413" fill="#482D1F"/>
<path d="M453.387 212.271C452.394 212.904 451.373 213.079 450.689 213.12C450.267 213.157 449.903 213.397 449.74 213.727L448.056 219.867C448.056 219.867 446.91 219.819 446.672 219.867C446.029 220.032 444.471 220.401 441.079 220.764C437.827 221.166 438.03 221.108 437.802 221.122C435.443 221.126 433.566 220.585 433.226 220.457C430.349 219.461 428.358 213.201 428.889 205.071C428.918 204.405 429.052 203.767 429.15 203.12L430.546 196.793C430.85 195.378 431.504 194.055 432.495 193.011C432.915 192.562 433.325 192.148 433.742 191.848C438.631 187.992 445.126 190.294 446.276 190.752C446.416 190.789 446.546 190.862 446.686 190.899C447.929 191.569 449.088 191.992 450.355 192.294C450.914 192.444 451.246 193.019 451.131 193.588L448.91 202.575C448.72 203.422 449.577 204.138 450.381 203.792C450.381 203.792 450.416 203.802 450.425 203.767C450.548 203.725 451.422 203.398 452.384 203.581C454.098 203.89 455.488 205.685 455.658 207.565C455.861 209.603 454.797 211.339 453.387 212.271Z" fill="#FFCDA8"/>
<path fill-rule="evenodd" clip-rule="evenodd" d="M433.018 203.147C433.018 203.147 431.116 208.569 431.046 208.849C430.976 209.127 432.81 208.465 432.81 208.465L433.018 203.147Z" fill="#E74B73"/>
<path fill-rule="evenodd" clip-rule="evenodd" d="M428.743 201.052C428.743 201.052 430.707 201.114 431.458 202.682C431.458 202.682 430.839 200.379 428.743 201.052Z" fill="#2D3238"/>
<path fill-rule="evenodd" clip-rule="evenodd" d="M439.493 203.34C439.493 203.34 438.913 201.89 437.728 202.118C436.541 202.347 436.297 203.175 436.297 203.175C436.297 203.175 437.928 201.448 439.493 203.34Z" fill="#2D3238"/>
<path d="M432.739 212.637C433.002 212.632 433.652 212.582 433.86 212.226C433.879 212.156 433.942 212.06 433.926 211.981C433.842 211.734 433.36 211.717 432.713 211.619C431.567 211.424 430.687 211.076 430.687 211.076C430.687 211.076 430.779 211.849 430.907 212.071C431.107 212.723 432.327 212.638 432.739 212.637Z" fill="#2D3238"/>
<path d="M462.88 198.495C462.185 197.036 461.201 196.099 460.778 195.723C458.444 193.676 456.196 193.822 450.916 192.295C449.833 192.005 448.211 191.495 446.276 190.752C446.127 190.75 445.997 190.677 445.857 190.64C444.707 190.182 438.41 188.12 433.768 191.892C433.749 191.962 433.006 192.362 433.057 192.45C433.057 192.45 433.064 192.564 433.131 192.732C433.115 192.653 433.108 192.539 433.092 192.46C433.716 192.926 434.423 193.64 435.319 194.067C437.842 195.267 440.224 195.456 441.699 195.402C441.893 196.353 442.199 197.445 442.689 198.55C444.09 201.845 446.309 203.899 447.782 204.968C447.362 205.978 446.941 206.988 446.53 207.964C446.705 208.011 446.845 208.048 447.029 208.06C447.029 208.06 449.854 207.993 450.462 209.354C450.597 209.69 450.583 210.023 450.527 210.232C450.067 213.066 447.312 216.221 447.875 217.195C448.444 218.284 453.229 217.469 457.115 214.842C458.17 214.115 461.019 212.145 462.654 208.279C463.079 206.97 464.88 202.624 462.88 198.495Z" fill="#482D1F"/>
<path fill-rule="evenodd" clip-rule="evenodd" d="M430.721 203.366C430.929 203.696 430.831 204.131 430.501 204.339C430.171 204.548 429.734 204.45 429.525 204.119C429.317 203.789 429.417 203.353 429.748 203.145C430.078 202.936 430.513 203.035 430.721 203.366Z" fill="#2D3238"/>
<path fill-rule="evenodd" clip-rule="evenodd" d="M437.804 204.498C438.062 204.908 437.939 205.446 437.53 205.705C437.12 205.963 436.583 205.841 436.324 205.431C436.066 205.021 436.186 204.482 436.596 204.224C437.005 203.966 437.546 204.088 437.804 204.498Z" fill="#2D3238"/>
<path d="M445.167 208.721L447.745 205.107C447.745 205.107 448.533 204.121 449.92 203.557C450.043 203.515 450.917 203.188 451.879 203.37C453.592 203.68 454.983 205.475 455.153 207.355C455.374 209.323 454.32 211.024 452.944 211.966C451.569 212.907 450.088 212.847 449.606 212.83L447.799 212.309" fill="#FFCDA8"/>
<path d="M452.791 217.427L452.487 220.378L448.128 219.883C447.506 219.829 447.104 219.235 447.193 218.622L447.425 217.337L448.439 214.951L452.791 217.427Z" fill="#482D1F"/>
<path d="M163.113 203.032C163.141 204.819 163.163 206.664 163.163 208.531C163.163 208.531 163.959 216.522 160.343 219.867C159.945 220.254 159.475 220.536 159.078 220.782C158.246 221.275 157.523 221.486 157.523 221.486C157.523 221.486 157.487 221.521 157.451 221.521C151.666 223.07 146.929 222.613 144.434 222.683C136.408 222.859 129.9 222.824 124.259 222.648C120.825 222.542 106.254 223.493 104.41 220.817C104.374 220.747 104.337 220.676 104.301 220.606C103.976 219.867 103.723 218.951 103.542 217.86C103.506 217.754 103.47 217.614 103.47 217.508C102.872 213.955 102.816 208.794 103.422 202.611L86.0598 201.186C84.9233 201.093 84.053 200.136 84.0681 198.995C84.1455 193.14 84.4627 189.128 85.0196 186.962C87.5947 176.944 92.5156 172.61 92.9502 171.059C95.421 162.098 97.877 158.918 98.8701 157.959C100.011 156.821 101.109 156.045 101.841 155.551C106.78 152.275 111.959 151.859 114.599 151.832C114.672 151.798 114.744 151.799 114.816 151.8L127.653 151.843C128.697 151.817 128.91 151.776 128.704 152.014C130.274 151.798 132.068 151.582 134.022 151.395C136.928 151.439 139.565 151.598 141.933 151.87L152.729 152.022C152.801 152.022 152.873 152.022 152.945 152.058C155.585 152.131 160.755 152.637 165.636 155.999C166.359 156.505 167.444 157.301 168.565 158.458C169.541 159.434 171.941 162.656 174.255 171.659C174.663 173.218 179.507 177.637 181.907 187.698C182.426 189.874 182.673 193.891 182.648 199.747C182.644 200.887 181.757 201.829 180.619 201.902L163.113 203.032H163.113Z" fill="#B2EEFC"/>
<path d="M101.12 220.531L101.807 220.169L113.81 213.77C113.81 213.77 142.916 206.979 159.656 203.87C162.549 201.809 179.759 202.272 180.229 201.802C181.422 213.299 182.94 224.778 168.412 224.778L95.5154 223.532L101.12 220.531Z" fill="#FFCDA8"/>
<path d="M112.581 191.497C113.304 189.147 116.775 178.337 117.607 176.095" stroke="#482D1F" stroke-width="1.08468" stroke-linecap="round" stroke-linejoin="round"/>
<path d="M154.93 176.095L159.913 202.767" stroke="#482D1F" stroke-width="1.08468" stroke-linecap="round" stroke-linejoin="round"/>
<path d="M130.936 138.807L139.373 142.144L139.445 143.916V143.952L139.228 153.787C139.228 154.076 139.011 154.365 138.722 154.438C137.276 154.871 134.708 155.378 131.708 154.691C130.044 154.329 128.707 153.678 127.767 153.1C127.55 152.991 127.441 152.738 127.441 152.485L127.826 141.175C126.793 140.127 125.339 138.572 124.476 137.3C123.753 136.251 121.367 133.72 120.716 129.598C120.535 128.224 119.848 123.596 122.705 120.017C123.717 118.752 124.874 118.101 125.38 117.848C128.092 116.401 130.225 117.052 135.612 116.835C136.046 116.799 136.769 116.799 137.673 116.727C139.336 116.618 140.493 116.474 140.819 116.438C143.494 116.148 149.316 116.655 152.1 120.523C152.244 120.776 152.425 121.029 152.606 121.246C151.883 121.572 151.051 122.078 150.111 122.295C147.435 122.873 145.121 122.476 143.675 122.078C141.108 124.826 138.541 127.574 135.974 130.285C134.605 132.202 132.475 135.984 130.936 138.807Z" fill="#FFCDA8"/>
<path d="M139.951 146.266L134.275 145.218L139.192 151.22L139.951 146.266Z" fill="#C9A285"/>
<path d="M154.124 126.272L153.98 132.744C153.944 133.395 153.907 134.046 153.763 134.696C152.967 139.288 151.485 143.121 149.822 145.579C148.592 147.423 147.219 148.508 145.917 148.616C145.555 148.689 143.603 148.761 141.325 148.183C141.108 148.11 141.289 148.219 138.216 147.062C137.023 146.628 136.083 146.266 135.359 145.941C134.058 145.399 133.371 145.037 133.009 144.82C132.756 144.712 132.684 144.639 132.684 144.639C130.985 141.385 129.538 138.42 128.309 135.817C127.586 134.262 126.827 132.708 127.224 130.792C127.369 130.032 127.767 128.152 129.43 127.176C131.057 126.236 132.865 126.706 133.371 126.851C134.058 127.031 134.6 127.321 134.926 127.537L134.889 118.282C134.889 117.703 135.359 117.197 135.938 117.197C137.203 117.161 138.469 117.052 139.807 116.691C139.951 116.655 140.096 116.655 140.24 116.618C141.47 116.438 148.339 115.714 152.172 120.632C152.533 121.029 152.823 121.499 153.112 122.078C153.799 123.416 154.161 124.826 154.124 126.272Z" fill="#FFCDA8"/>
<path fill-rule="evenodd" clip-rule="evenodd" d="M147.797 129.508C147.797 129.508 151.035 137.781 151.159 138.207C151.281 138.629 148.385 137.539 148.385 137.539L147.797 129.508Z" fill="#E74B73"/>
<path fill-rule="evenodd" clip-rule="evenodd" d="M153.365 129.276C153.365 129.276 151.491 128.688 150.266 129.922C150.266 129.922 151.608 127.951 153.365 129.276Z" fill="#2D3238"/>
<path fill-rule="evenodd" clip-rule="evenodd" d="M142.455 130.394C142.455 130.394 144.33 129.806 145.555 131.04C145.555 131.04 144.212 129.069 142.455 130.394Z" fill="#2D3238"/>
<path fill-rule="evenodd" clip-rule="evenodd" d="M151.2 131.091C150.992 131.421 151.09 131.856 151.42 132.065C151.751 132.273 152.187 132.175 152.396 131.845C152.604 131.514 152.504 131.078 152.174 130.87C151.844 130.661 151.409 130.76 151.2 131.091Z" fill="#2D3238"/>
<path fill-rule="evenodd" clip-rule="evenodd" d="M144.117 132.223C143.859 132.633 143.982 133.171 144.392 133.43C144.801 133.688 145.338 133.566 145.597 133.156C145.855 132.746 145.735 132.207 145.325 131.949C144.916 131.691 144.376 131.813 144.117 132.223Z" fill="#2D3238"/>
<path d="M152.606 121.246C151.883 121.572 151.051 122.078 150.075 122.295C147.363 122.873 144.977 122.476 143.531 122.078C140.927 124.826 137.384 128.478 134.745 131.225C129.827 131.442 125.85 130.719 120.933 130.936C120.933 130.936 120.463 130.43 120.21 129.671C119.848 128.586 119.089 123.922 122.235 120.089C123.247 118.824 124.44 118.173 124.946 117.92C127.694 116.474 129.864 117.125 135.359 116.908C135.793 116.871 136.516 116.871 137.456 116.799C139.156 116.691 140.313 116.546 140.674 116.51C143.386 116.221 149.316 116.727 152.136 120.596C152.244 120.776 152.425 121.029 152.606 121.246Z" fill="#482D1F"/>
<path d="M135.685 134.841L135.215 130.213C135.215 130.213 134.998 128.911 134.022 127.682C133.949 127.61 133.299 126.851 132.322 126.525C130.587 125.947 128.417 126.851 127.26 128.478C126.067 130.141 126.176 132.274 126.971 133.865C127.767 135.456 129.141 136.106 129.611 136.323L131.527 136.721L135.685 134.841Z" fill="#FFCDA8"/>
<path d="M147.368 141.747C147.115 141.674 146.5 141.494 146.391 141.096C146.391 141.024 146.355 140.915 146.391 140.843C146.536 140.59 146.97 140.734 147.621 140.77C148.778 140.843 149.718 140.734 149.718 140.734C149.718 140.734 149.465 141.457 149.284 141.674C148.886 142.217 147.729 141.855 147.368 141.747Z" fill="#2D3238"/>
<path d="M126.14 130.394C125.959 131.551 126.176 132.78 126.682 133.756C127.477 135.347 128.851 135.998 129.321 136.215" stroke="#C9A285" stroke-width="0.72312" stroke-linecap="round" stroke-linejoin="round"/>
<path d="M122.285 183.128C125.406 170.245 127.506 162.609 128.586 160.22C129.653 157.86 129.807 159.586 130.556 160.567C130.944 161.076 130.787 159.821 131.39 159.927C132.568 160.135 133.262 160.932 133.471 162.317C134.515 162.922 134.955 163.69 134.791 164.622C134.671 165.298 135.615 166.697 133.627 175.001C132.921 177.951 134.795 181.985 134.07 185.145L134.1 185.15C132.311 191.873 126.452 202.2 116.522 216.133C101.628 237.033 88.9712 226.084 85.5719 223.734C83.3058 222.167 83.3058 214.616 85.5719 201.079L102.026 202.453L122.285 183.128Z" fill="#FFCDA8"/>
<path d="M101.77 202.453L98.2092 204.562" stroke="#482D1F" stroke-width="1.08468" stroke-linecap="round" stroke-linejoin="round"/>
<path d="M119.523 211.822L110.484 223.03" stroke="#C9A285" stroke-width="1.08468" stroke-linecap="round" stroke-linejoin="round"/>
<path d="M357.325 144.933H227.164C223.17 144.933 219.932 148.171 219.932 152.164V245.447C219.932 249.44 223.17 252.678 227.164 252.678H357.325C361.319 252.678 364.556 249.44 364.556 245.447V152.164C364.556 148.171 361.319 144.933 357.325 144.933Z" fill="#F2F6FB"/>
<path d="M242.91 188.274C235.703 188.274 229.861 182.427 229.861 175.214C229.861 168.001 235.703 162.154 242.91 162.154C250.116 162.154 255.959 168.001 255.959 175.214C255.959 182.427 250.116 188.274 242.91 188.274ZM242.903 175.038C244.68 175.038 246.12 173.615 246.12 171.861C246.12 170.106 244.68 168.684 242.903 168.684C241.126 168.684 239.685 170.106 239.685 171.861C239.685 173.615 241.126 175.038 242.903 175.038ZM242.903 176.626C239.682 176.626 237.071 179.204 237.071 182.384H248.735C248.735 179.204 246.124 176.626 242.903 176.626ZM242.91 236.596C235.703 236.596 229.861 230.749 229.861 223.536C229.861 216.323 235.703 210.476 242.91 210.476C250.116 210.476 255.959 216.323 255.959 223.536C255.959 230.749 250.116 236.596 242.91 236.596ZM242.903 223.36C244.68 223.36 246.12 221.937 246.12 220.183C246.12 218.428 244.68 217.006 242.903 217.006C241.126 217.006 239.685 218.428 239.685 220.183C239.685 221.937 241.126 223.36 242.903 223.36ZM242.903 224.948C239.682 224.948 237.071 227.526 237.071 230.706H248.735C248.735 227.526 246.124 224.948 242.903 224.948ZM263.206 220.924H332.225C332.624 220.924 332.948 221.248 332.948 221.647V225.425C332.948 225.824 332.624 226.148 332.225 226.148H263.206C262.807 226.148 262.483 225.824 262.483 225.425V221.647C262.483 221.248 262.807 220.924 263.206 220.924ZM263.206 229.413H325.7C326.1 229.413 326.423 229.737 326.423 230.136V233.914C326.423 234.313 326.1 234.637 325.7 234.637H263.206C262.807 234.637 262.483 234.313 262.483 233.914V230.136C262.483 229.737 262.807 229.413 263.206 229.413Z" fill="#D8DEED"/>
<path d="M334.072 162.154H263.929C263.131 162.154 262.483 162.802 262.483 163.6V199.888C262.483 200.687 263.131 201.334 263.929 201.334H334.072C334.871 201.334 335.518 200.687 335.518 199.888V163.6C335.518 162.802 334.871 162.154 334.072 162.154Z" fill="#73E2FD"/>
<path fill-rule="evenodd" clip-rule="evenodd" d="M299.587 188.241L298.902 188.25L298.907 188.241H289.932C289.531 188.241 289.376 187.968 289.587 187.628L295.824 177.607C296.034 177.268 296.384 177.266 296.604 177.599L301.174 184.59L302.818 181.943C303.029 181.604 303.381 181.593 303.61 181.927L307.421 187.465C307.648 187.795 307.511 188.072 307.108 188.085L303.933 188.183L303.409 188.19L303.439 188.241C303.439 188.241 303.115 188.241 302.714 188.241H299.587ZM303.35 178.939C302.51 178.939 301.828 178.251 301.828 177.403C301.828 176.555 302.51 175.867 303.35 175.867C304.19 175.867 304.872 176.555 304.872 177.403C304.872 178.251 304.19 178.939 303.35 178.939Z" fill="white"/>
<path d="M340.054 212.435H263.206C262.807 212.435 262.483 212.759 262.483 213.158V216.936C262.483 217.335 262.807 217.659 263.206 217.659H340.054C340.453 217.659 340.777 217.335 340.777 216.936V213.158C340.777 212.759 340.453 212.435 340.054 212.435Z" fill="#E1E5F0"/>
<g clip-path="url(#clip0_1503_345)">
<path d="M382.996 85.9988H248.134C244.14 85.9988 240.903 89.2363 240.903 93.23V123.963C240.903 127.956 244.14 131.194 248.134 131.194H382.996C386.99 131.194 390.227 127.956 390.227 123.963V93.23C390.227 89.2363 386.99 85.9988 382.996 85.9988Z" fill="#D8DEED"/>
<path d="M367.611 121.881C360.405 121.881 354.562 116.034 354.562 108.821C354.562 101.608 360.405 95.7609 367.611 95.7609C374.818 95.7609 380.66 101.608 380.66 108.821C380.66 116.034 374.818 121.881 367.611 121.881ZM367.605 108.644C369.382 108.644 370.822 107.222 370.822 105.468C370.822 103.713 369.382 102.291 367.605 102.291C365.828 102.291 364.387 103.713 364.387 105.468C364.387 107.222 365.828 108.644 367.605 108.644ZM367.605 110.233C364.384 110.233 361.773 112.811 361.773 115.991H373.437C373.437 112.811 370.826 110.233 367.605 110.233ZM254.808 107.515H330.351C330.75 107.515 331.074 107.839 331.074 108.238V112.016C331.074 112.415 330.75 112.739 330.351 112.739H254.808C254.409 112.739 254.085 112.415 254.085 112.016V108.238C254.085 107.839 254.409 107.515 254.808 107.515ZM254.808 116.004H336.876C337.275 116.004 337.599 116.328 337.599 116.727V120.505C337.599 120.904 337.275 121.228 336.876 121.228H254.808C254.409 121.228 254.085 120.904 254.085 120.505V116.727C254.085 116.328 254.409 116.004 254.808 116.004Z" fill="#F2F6FB"/>
<path d="M338.18 99.0259H254.808C254.409 99.0259 254.085 99.3496 254.085 99.749V103.527C254.085 103.926 254.409 104.25 254.808 104.25H338.18C338.58 104.25 338.904 103.926 338.904 103.527V99.749C338.904 99.3496 338.58 99.0259 338.18 99.0259Z" fill="#E1E5F0"/>
<path d="M339.609 46.5887H204.747C200.753 46.5887 197.516 49.8263 197.516 53.8199V84.5525C197.516 88.5462 200.753 91.7837 204.747 91.7837H339.609C343.602 91.7837 346.84 88.5462 346.84 84.5525V53.8199C346.84 49.8263 343.602 46.5887 339.609 46.5887Z" fill="#F2F6FB"/>
<path d="M223.747 82.2561C216.54 82.2561 210.698 76.4089 210.698 69.1961C210.698 61.9833 216.54 56.1361 223.747 56.1361C230.954 56.1361 236.796 61.9833 236.796 69.1961C236.796 76.4089 230.954 82.2561 223.747 82.2561ZM223.74 69.0196C225.517 69.0196 226.958 67.5973 226.958 65.8428C226.958 64.0884 225.517 62.6661 223.74 62.6661C221.963 62.6661 220.523 64.0884 220.523 65.8428C220.523 67.5973 221.963 69.0196 223.74 69.0196ZM223.74 70.608C220.519 70.608 217.908 73.1859 217.908 76.3658H229.572C229.572 73.1859 226.961 70.608 223.74 70.608ZM244.043 66.5841H319.586C319.986 66.5841 320.31 66.9078 320.31 67.3072V71.085C320.31 71.4843 319.986 71.8081 319.586 71.8081H244.043C243.644 71.8081 243.32 71.4843 243.32 71.085V67.3072C243.32 66.9078 243.644 66.5841 244.043 66.5841ZM244.043 75.0731H332.635C333.035 75.0731 333.359 75.3968 333.359 75.7962V79.5739C333.359 79.9733 333.035 80.2971 332.635 80.2971H244.043C243.644 80.2971 243.32 79.9733 243.32 79.5739V75.7962C243.32 75.3968 243.644 75.0731 244.043 75.0731Z" fill="#D8DEED"/>
<path d="M301.318 58.0951H244.043C243.644 58.0951 243.32 58.4188 243.32 58.8182V62.596C243.32 62.9953 243.644 63.3191 244.043 63.3191H301.318C301.717 63.3191 302.041 62.9953 302.041 62.596V58.8182C302.041 58.4188 301.717 58.0951 301.318 58.0951Z" fill="#E1E5F0"/>
</g>
<g clip-path="url(#clip1_1503_345)">
<path d="M323.7 271.117H169.314C165.32 271.117 162.083 274.355 162.083 278.349V298.957C162.083 302.951 165.32 306.189 169.314 306.189H323.7C327.694 306.189 330.931 302.951 330.931 298.957V278.349C330.931 274.355 327.694 271.117 323.7 271.117Z" fill="#D8DEED"/>
<path d="M292.606 283.772H314.299C315.455 283.772 316.482 284.03 317.339 284.502C318.196 284.974 318.883 285.66 319.355 286.517C319.827 287.374 320.084 288.402 320.084 289.557C320.084 290.712 319.827 291.74 319.355 292.597C318.883 293.454 318.196 294.14 317.339 294.612C316.482 295.084 315.455 295.342 314.299 295.342H292.606C291.451 295.342 290.423 295.084 289.566 294.612C288.709 294.14 288.023 293.454 287.551 292.597C287.079 291.74 286.821 290.712 286.821 289.557C286.821 288.402 287.079 287.374 287.551 286.517C288.023 285.66 288.709 284.974 289.566 284.502C290.423 284.03 291.451 283.772 292.606 283.772Z" fill="#474BFF"/>
<path d="M273.443 283.772H177.268C176.47 283.772 175.822 284.419 175.822 285.218V293.896C175.822 294.694 176.47 295.342 177.268 295.342H273.443C274.242 295.342 274.889 294.694 274.889 293.896V285.218C274.889 284.419 274.242 283.772 273.443 283.772Z" fill="white"/>
</g>
<path d="M425.983 283.772H450.208C452.604 283.772 454.546 285.714 454.546 288.111V295.342H393.081H374.28V247.978H421.644C424.041 247.978 425.983 249.92 425.983 252.316V283.772Z" fill="#B2EEFC"/>
<path d="M69.0059 228.605L73.2933 211.306H41.109C37.7652 211.306 35.0005 208.764 35.0005 205.688V156.691C34.9565 153.57 37.6761 151.029 41.0644 151.029H139.013C142.357 151.029 145.121 153.57 145.121 156.647V205.688C145.121 208.764 142.357 211.306 139.013 211.306H99.7912L98.0214 228.605H109.634C111.417 228.605 112.799 230.031 112.799 231.77C112.799 233.554 111.372 234.936 109.634 234.936H59.9236C58.1402 234.936 56.7582 233.509 56.7582 231.77C56.669 230.031 58.1402 228.605 59.9236 228.605H69.0059Z" fill="#73E2FD"/>
<path d="M268.936 121.186L261.382 114.465C259.605 112.673 256.495 113.121 255.162 114.913L233.834 140.453L221.392 129.699C219.615 128.355 216.505 128.355 215.172 130.147L208.507 138.213C206.729 140.005 207.174 143.141 208.951 144.486L232.056 164.201C232.945 165.097 234.278 165.545 235.611 165.097C236.944 165.097 238.277 164.649 238.721 163.304L268.936 127.459C271.158 125.667 270.713 122.53 268.936 121.186Z" fill="url(#paint0_linear_1503_345)"/>
<path d="M281.725 121.143L274.171 114.422C272.394 112.63 269.283 113.078 267.95 114.87L246.622 140.41L234.181 129.656C232.404 128.312 229.293 128.312 227.96 130.553L221.295 138.17C219.962 139.962 219.962 143.099 221.74 144.443L244.845 164.158C245.734 165.054 247.067 165.502 248.4 165.054C249.733 165.054 251.066 164.606 251.51 163.262L281.725 127.416C283.946 125.624 283.502 122.935 281.725 121.143Z" fill="url(#paint1_linear_1503_345)"/>
<defs>
<linearGradient id="paint0_linear_1503_345" x1="238.908" y1="113.324" x2="238.908" y2="165.272" gradientUnits="userSpaceOnUse">
<stop stop-color="#1792C7"/>
<stop offset="1" stop-color="#00B8F0"/>
</linearGradient>
<linearGradient id="paint1_linear_1503_345" x1="251.787" y1="113.281" x2="251.787" y2="165.23" gradientUnits="userSpaceOnUse">
<stop stop-color="#00B8F0"/>
<stop offset="0.0001" stop-color="#00B8F0"/>
<stop offset="0.739583" stop-color="#B2EEFC"/>
</linearGradient>
<clipPath id="clip0_1503_345">
<rect width="192.711" height="110.276" fill="white" transform="translate(197.516 20.918)"/>
</clipPath>
<clipPath id="clip1_1503_345">
<rect width="192.711" height="110.276" fill="white" transform="translate(147.982 195.913)"/>
</clipPath>
</defs>
</svg>
