<svg width="228" height="139" viewBox="0 0 228 139" fill="none" xmlns="http://www.w3.org/2000/svg">
<rect x="77.1947" y="28.5774" width="44.5449" height="21.2623" rx="3" transform="rotate(-17.133 77.1947 28.5774)" fill="url(#paint0_linear_1503_259)"/>
<ellipse cx="101.015" cy="32.1736" rx="7.23397" ry="6.98478" transform="rotate(-17.133 101.015 32.1736)" fill="white"/>
<rect x="26.874" y="28.4994" width="93.5453" height="44.6514" rx="3" transform="rotate(36.0364 26.874 28.4994)" fill="url(#paint1_linear_1503_259)"/>
<ellipse cx="50.8151" cy="73.0653" rx="15.1915" ry="14.6682" transform="rotate(36.0364 50.8151 73.0653)" fill="white"/>
<rect x="106.506" y="105.899" width="73.1266" height="34.9051" rx="3" transform="rotate(-19.3406 106.506 105.899)" fill="url(#paint2_linear_1503_259)"/>
<ellipse cx="145.808" cy="110.293" rx="11.8756" ry="11.4665" transform="rotate(-19.3406 145.808 110.293)" fill="white"/>
<path d="M196.492 12.999L187.471 4.7748C185.348 2.58168 181.633 3.12996 180.041 5.32308L154.569 36.575L139.71 23.4163C137.587 21.7715 133.873 21.7715 132.281 23.9646L124.32 33.8336C122.198 36.0267 122.728 39.8647 124.851 41.5095L152.446 65.6338C153.508 66.7304 155.1 67.2786 156.692 66.7304C158.284 66.7304 159.876 66.1821 160.406 64.5373L196.492 20.6749C199.146 18.4818 198.615 14.6438 196.492 12.999Z" fill="url(#paint3_linear_1503_259)"/>
<path d="M211.766 12.9466L202.745 4.72243C200.622 2.52931 196.908 3.07759 195.316 5.27071L169.843 36.5226L154.984 23.3639C152.861 21.7191 149.147 21.7191 147.555 24.4605L139.595 33.7812C138.003 35.9744 138.003 39.8123 140.125 41.4572L167.72 65.5814C168.782 66.678 170.374 67.2263 171.966 66.678C173.558 66.678 175.15 66.1297 175.681 64.4849L211.766 20.6225C214.42 18.4294 213.889 15.1397 211.766 12.9466Z" fill="url(#paint4_linear_1503_259)"/>
<defs>
<linearGradient id="paint0_linear_1503_259" x1="99.4671" y1="28.5774" x2="99.4671" y2="49.8397" gradientUnits="userSpaceOnUse">
<stop stop-color="#6FC7A1"/>
<stop offset="1" stop-color="#DBFBDF"/>
</linearGradient>
<linearGradient id="paint1_linear_1503_259" x1="73.6467" y1="28.4994" x2="73.6467" y2="73.1508" gradientUnits="userSpaceOnUse">
<stop stop-color="#6FC7A1"/>
<stop offset="1" stop-color="#DBFBDF"/>
</linearGradient>
<linearGradient id="paint2_linear_1503_259" x1="143.069" y1="105.899" x2="143.069" y2="140.804" gradientUnits="userSpaceOnUse">
<stop stop-color="#6FC7A1"/>
<stop offset="1" stop-color="#DBFBDF"/>
</linearGradient>
<linearGradient id="paint3_linear_1503_259" x1="160.629" y1="3.37866" x2="160.629" y2="66.9455" gradientUnits="userSpaceOnUse">
<stop stop-color="#1792C7"/>
<stop offset="1" stop-color="#00B8F0"/>
</linearGradient>
<linearGradient id="paint4_linear_1503_259" x1="176.011" y1="3.32629" x2="176.011" y2="66.8931" gradientUnits="userSpaceOnUse">
<stop stop-color="#00B8F0"/>
<stop offset="0.0001" stop-color="#00B8F0"/>
<stop offset="0.739583" stop-color="#B2EEFC"/>
</linearGradient>
</defs>
</svg>
