<svg width="124" height="138" viewBox="0 0 124 138" fill="none" xmlns="http://www.w3.org/2000/svg">
<path d="M104.067 89.4337C103.193 88.5971 102.036 88.1417 100.84 88.1633C99.6447 88.185 98.5041 88.682 97.6586 89.5498C96.8131 90.4175 96.3288 91.5882 96.3077 92.8151C96.2866 94.0421 96.7304 95.2296 97.5455 96.1274C98.2617 96.8606 98.83 97.7317 99.2177 98.6907C99.6054 99.6497 99.805 100.678 99.805 101.716C99.805 102.754 99.6054 103.782 99.2177 104.741C98.83 105.7 98.2617 106.571 97.5455 107.305C96.7304 108.202 96.2866 109.39 96.3077 110.617C96.3288 111.844 96.8131 113.015 97.6586 113.882C98.5041 114.75 99.6447 115.247 100.84 115.269C102.036 115.29 103.193 114.835 104.067 113.998C107.235 110.737 109.013 106.321 109.013 101.716C109.013 97.1115 107.235 92.6947 104.067 89.4337Z" fill="url(#paint0_linear_1503_234)"/>
<path d="M113.419 79.2999C112.445 78.4428 111.157 77.9761 109.825 77.9983C108.494 78.0205 107.224 78.5298 106.283 79.4189C105.341 80.3079 104.802 81.5074 104.779 82.7646C104.755 84.0217 105.249 85.2384 106.157 86.1583C110.633 90.4026 113.147 96.149 113.147 102.14C113.147 108.13 110.633 113.877 106.157 118.121C105.249 119.041 104.755 120.257 104.779 121.515C104.802 122.772 105.341 123.971 106.283 124.86C107.224 125.749 108.494 126.259 109.825 126.281C111.157 126.303 112.445 125.836 113.419 124.979C119.82 118.915 123.414 110.702 123.414 102.14C123.414 93.5771 119.82 85.3639 113.419 79.2999Z" fill="url(#paint1_linear_1503_234)"/>
<path d="M80.5673 18.7014H19.7142C9.15 18.7014 0.58606 27.2853 0.58606 37.8741V108.803C0.58606 119.392 9.15 127.976 19.7142 127.976H80.5673C91.1314 127.976 99.6954 119.392 99.6954 108.803V37.8741C99.6954 27.2853 91.1314 18.7014 80.5673 18.7014Z" fill="#333333"/>
<path d="M96.9971 89.4211C96.0128 90.3287 95.4599 91.559 95.4599 92.8418C95.4599 94.1245 96.0128 95.3548 96.9971 96.2624C97.8129 97.0118 98.4602 97.902 98.9019 98.8821C99.3435 99.8623 99.5708 100.913 99.5708 101.974C99.5708 103.035 99.3435 104.086 98.9019 105.066C98.4602 106.046 97.8129 106.937 96.9971 107.686C96.0128 108.594 95.4599 109.824 95.4599 111.107C95.4599 112.389 96.0128 113.62 96.9971 114.527C97.354 114.825 97.7552 115.075 98.1885 115.269C99.1855 113.026 99.6973 110.626 99.6953 108.202V88.1626C98.6787 88.3221 97.7382 88.7608 96.9971 89.4211Z" fill="url(#paint2_linear_1503_234)"/>
<path d="M69.4106 54.1159L63.0422 48.2945C61.5438 46.7421 58.9215 47.1302 57.7977 48.6826L39.8166 70.804L29.3275 61.4897C27.8291 60.3254 25.2069 60.3254 24.083 61.8778L18.4639 68.8635C16.9655 70.4159 17.3401 73.1326 18.8385 74.2968L38.3181 91.373C39.0673 92.1492 40.1912 92.5373 41.315 92.1492C42.4388 92.1492 43.5626 91.7611 43.9372 90.5968L69.4106 59.5493C71.2836 57.9969 70.909 55.2802 69.4106 54.1159Z" fill="url(#paint3_linear_1503_234)"/>
<path d="M80.1927 54.0788L73.8243 48.2574C72.3259 46.705 69.7037 47.0931 68.5798 48.6455L50.5986 70.7669L40.1096 61.4526C38.6112 60.2883 35.9889 60.2883 34.8651 62.2288L29.246 68.8264C28.1222 70.3788 28.1222 73.0955 29.6206 74.2597L49.1002 91.3359C49.8494 92.1121 50.9732 92.5002 52.0971 92.1121C53.2209 92.1121 54.3447 91.724 54.7193 90.5597L80.1927 59.5121C82.0657 57.9598 81.6911 55.6312 80.1927 54.0788Z" fill="url(#paint4_linear_1503_234)"/>
<path d="M99.6954 39.0315H104.976C105.506 39.0315 106.031 39.1423 106.521 39.3575C107.011 39.5727 107.456 39.8881 107.831 40.2858C108.206 40.6835 108.503 41.1556 108.706 41.6752C108.909 42.1947 109.013 42.7516 109.013 43.314V64.3971C109.013 65.5329 108.588 66.6221 107.831 67.4253C107.073 68.2284 106.046 68.6796 104.976 68.6796H99.6954V39.0315Z" fill="url(#paint5_linear_1503_234)"/>
<path d="M74.4945 3.17142C74.4945 2.34766 74.1524 1.55764 73.5434 0.975153C72.9344 0.392667 72.1085 0.0654297 71.2473 0.0654297H28.9367C28.0755 0.0654297 27.2495 0.392667 26.6406 0.975153C26.0316 1.55764 25.6895 2.34766 25.6895 3.17142C25.6868 7.3127 24.675 11.3964 22.7346 15.0984L20.9162 18.7014H79.3652L77.4494 15.0052C75.5236 11.3313 74.5123 7.2812 74.4945 3.17142Z" fill="url(#paint6_linear_1503_234)"/>
<path d="M31.8916 137.294H68.3898C70.2871 137.265 72.1381 136.73 73.7335 135.747C75.3289 134.764 76.6048 133.374 77.4169 131.734L79.3652 127.976H20.9162L22.832 131.672C23.6373 133.328 24.9143 134.735 26.5166 135.729C28.119 136.723 29.9818 137.266 31.8916 137.294Z" fill="url(#paint7_linear_1503_234)"/>
<path d="M102.237 39.0315H99.6954V68.6796H102.237V39.0315Z" fill="url(#paint8_linear_1503_234)"/>
<defs>
<linearGradient id="paint0_linear_1503_234" x1="270.002" y1="1015.22" x2="374.448" y2="1015.22" gradientUnits="userSpaceOnUse">
<stop stop-color="#87C5FC" stop-opacity="0.384001"/>
<stop offset="0.52" stop-color="#CCE2E6"/>
<stop offset="1" stop-color="#8FA1BB"/>
</linearGradient>
<linearGradient id="paint1_linear_1503_234" x1="359.531" y1="1729.31" x2="512.719" y2="1729.31" gradientUnits="userSpaceOnUse">
<stop stop-color="#87C5FC" stop-opacity="0.384001"/>
<stop offset="0.52" stop-color="#CCE2E6"/>
<stop offset="1" stop-color="#8FA1BB"/>
</linearGradient>
<linearGradient id="paint2_linear_1503_234" x1="153.358" y1="1015.22" x2="188.174" y2="1015.22" gradientUnits="userSpaceOnUse">
<stop stop-color="#87C5FC" stop-opacity="0.384001"/>
<stop offset="0.52" stop-color="#CCE2E6"/>
<stop offset="1" stop-color="#8FA1BB"/>
</linearGradient>
<linearGradient id="paint3_linear_1503_234" x1="44.0944" y1="47.3063" x2="44.0944" y2="92.3014" gradientUnits="userSpaceOnUse">
<stop stop-color="#1792C7"/>
<stop offset="1" stop-color="#00B8F0"/>
</linearGradient>
<linearGradient id="paint4_linear_1503_234" x1="54.9529" y1="47.2692" x2="54.9529" y2="92.2643" gradientUnits="userSpaceOnUse">
<stop stop-color="#00B8F0"/>
<stop offset="0.0001" stop-color="#00B8F0"/>
<stop offset="0.739583" stop-color="#B2EEFC"/>
</linearGradient>
<linearGradient id="paint5_linear_1503_234" x1="475.303" y1="617.169" x2="388.925" y2="617.169" gradientUnits="userSpaceOnUse">
<stop stop-color="white"/>
<stop offset="0.52" stop-color="#CCE2E6"/>
<stop offset="1" stop-color="#8FA1BB"/>
</linearGradient>
<linearGradient id="paint6_linear_1503_234" x1="50.1407" y1="0.0654297" x2="50.1407" y2="18.7014" gradientUnits="userSpaceOnUse">
<stop stop-color="#00B8F0"/>
<stop offset="0.0001" stop-color="#00B8F0"/>
<stop offset="0.739583" stop-color="#B2EEFC"/>
</linearGradient>
<linearGradient id="paint7_linear_1503_234" x1="50.1407" y1="127.976" x2="50.1407" y2="137.294" gradientUnits="userSpaceOnUse">
<stop stop-color="#00B8F0"/>
<stop offset="0.0001" stop-color="#00B8F0"/>
<stop offset="0.739583" stop-color="#B2EEFC"/>
</linearGradient>
<linearGradient id="paint8_linear_1503_234" x1="218.067" y1="617.169" x2="176.899" y2="617.169" gradientUnits="userSpaceOnUse">
<stop stop-color="white"/>
<stop offset="0.52" stop-color="#CCE2E6"/>
<stop offset="1" stop-color="#8FA1BB"/>
</linearGradient>
</defs>
</svg>
