<svg width="627" height="560" xmlns="http://www.w3.org/2000/svg" fill="none">

 <g>
  <title>Layer 1</title>
  <path id="svg_1" stroke-opacity="0.11" stroke="#3898FE" d="m581.642,13.9983l0.011,0.0111l0.011,0.0103l81.359,72.2632l0.015,0.0132l0.015,0.012c18.911,14.2769 23.637,47.6119 -0.012,66.6569l-0.037,0.03l-0.031,0.037l-325.421,385.389c-0.002,0.003 -0.004,0.005 -0.006,0.007c-13.806,15.171 -28.527,19.898 -41.307,19.679c-12.799,-0.219 -23.688,-5.399 -29.789,-10.103c-0.003,-0.002 -0.007,-0.005 -0.01,-0.007l-248.8414,-211.957l-0.0112,-0.009l-0.0117,-0.009c-9.44169,-7.128 -15.36825,-19.034 -16.55375,-31.564c-1.18499,-12.525 2.37203,-25.618 11.82135,-35.13l0.016,-0.016l0.0145,-0.018l71.7867,-86.715l0.0081,-0.01l0.0077,-0.01c7.0638,-9.481 18.8667,-14.257 31.3287,-14.855c12.456,-0.597 25.491,2.987 34.957,10.128l133.989,115.61l0.385,0.331l0.326,-0.389l229.717,-274.5997l0.009,-0.0108l0.008,-0.0113c7.082,-9.50472 18.908,-15.46932 31.353,-16.66242c12.439,-1.19257 25.444,2.3869 34.893,11.89852z"/>
  <path id="svg_2" stroke-opacity="0.11" stroke="#3898FE" d="m720.608,13.9983l0.011,0.0111l0.012,0.0103l81.358,72.2632l0.015,0.0132l0.016,0.012c18.911,14.2769 23.636,47.6119 -0.012,66.6569l-0.038,0.03l-0.031,0.037l-325.421,385.389c-0.002,0.003 -0.004,0.005 -0.006,0.007c-13.805,15.171 -28.527,19.898 -41.307,19.679c-12.799,-0.219 -23.688,-5.399 -29.789,-10.103c-0.003,-0.002 -0.006,-0.005 -0.009,-0.007l-248.842,-211.957l-0.011,-0.009l-0.012,-0.009c-9.441,-7.128 -15.368,-19.034 -16.554,-31.564c-1.185,-12.525 2.372,-25.618 11.822,-35.13l0.016,-0.016l0.014,-0.018l71.787,-86.715l0.008,-0.01l0.008,-0.01c7.064,-9.481 18.866,-14.257 31.329,-14.855c12.455,-0.597 25.491,2.987 34.957,10.128l133.989,115.61l0.384,0.331l0.326,-0.389l229.717,-274.5997l0.009,-0.0108l0.009,-0.0113c7.081,-9.50472 18.908,-15.46932 31.352,-16.66242c12.44,-1.19257 25.444,2.3869 34.893,11.89852z"/>
 </g>
</svg>